<?xml version="1.0" encoding="iso-8859-1"?>
<!-- Uploaded to: SVG Repo, www.svgrepo.com, Generator: SVG Repo Mixer Tools -->
<svg fill="#000000" height="800px" width="800px" version="1.1" id="Layer_1" xmlns="http://www.w3.org/2000/svg" xmlns:xlink="http://www.w3.org/1999/xlink" 
	 viewBox="0 0 510.836 510.836" xml:space="preserve">
<g>
	<g>
		<circle cx="155.927" cy="185.6" r="11.636"/>
	</g>
</g>
<g>
	<g>
		<path d="M360.727,127.418H58.182c-19.782,0-34.909-15.127-34.909-34.909C23.273,72.727,38.4,57.6,58.182,57.6h302.545
			c6.982,0,11.636-4.655,11.636-11.636s-4.655-11.636-11.636-11.636H58.182C25.6,34.327,0,59.927,0,92.509
			c0,32.582,25.6,58.182,58.182,58.182h302.545c70.982,0,128,57.018,128,128c0,33.745-12.8,66.327-37.236,90.764
			c-24.436,24.436-57.018,37.236-90.764,37.236c-32.582,0-58.182,11.636-79.127,34.909c-4.655-20.945-2.327-48.873,6.982-62.836
			c3.491-5.818,2.327-12.8-3.491-16.291s-12.8-2.327-16.291,3.491c-18.618,26.764-18.618,80.291,0,105.891
			c2.327,3.491,5.818,4.655,9.309,4.655s6.982-2.327,9.309-5.818c18.618-29.091,39.564-40.727,72.145-40.727
			c83.782,0,151.273-67.491,151.273-151.273S444.509,127.418,360.727,127.418z"/>
	</g>
</g>
<g>
	<g>
		<path d="M443.345,325.236c-4.655,0-8.145,0-12.8,0c1.164-3.491,1.164-6.982,1.164-11.636c0-10.473-2.327-19.782-6.982-29.091
			c10.473-9.309,19.782-19.782,27.927-34.909c3.491-5.818,1.164-12.8-4.655-16.291s-12.8-1.164-16.291,4.655
			c-5.818,11.636-12.8,19.782-20.945,26.764c-11.636-12.8-27.927-19.782-46.545-20.945c8.145-17.455,10.473-37.236,6.982-59.345
			c-1.164-5.818-6.982-10.473-12.8-10.473c-5.818,1.164-10.473,6.982-10.473,12.8c3.491,23.273,0,40.727-10.473,57.018H214.109
			c-52.364,0-84.945-20.945-98.909-61.673c-2.327-5.818-8.145-9.309-15.127-6.982c-5.818,2.327-9.309,8.145-6.982,15.127
			c10.473,33.745,38.4,72.145,105.891,76.8l-34.909,52.364c-3.491,5.818-2.327,12.8,3.491,16.291
			c2.327,1.164,4.655,2.327,6.982,2.327c3.491,0,6.982-2.327,9.309-4.655l43.055-65.164H256l-20.945,27.927
			c-3.491,4.655-2.327,12.8,2.327,16.291c2.327,1.164,4.655,2.327,6.982,2.327c3.491,0,6.982-1.164,9.309-4.655l31.418-41.891
			h28.218l-20.073,26.764c-3.491,4.655-2.327,12.8,2.327,16.291c2.327,1.164,4.655,2.327,6.982,2.327
			c3.491,0,6.982-1.164,9.309-4.655l31.418-41.891h1.164h16.291c25.6,0,46.545,20.945,46.545,46.545
			c0,25.6-20.945,46.545-46.545,46.545h-34.909c-6.982,0-11.636,4.655-11.636,11.636s4.655,11.636,11.636,11.636h34.909
			c26.764,0,48.873-15.127,61.673-36.073c5.818,1.164,11.636,1.164,18.618,1.164c1.164,0,1.164,0,2.327,0
			c6.982,0,11.636-5.818,11.636-11.636C454.982,331.055,449.164,325.236,443.345,325.236z"/>
	</g>
</g>
</svg>